<svg class="diagram-root" style="background: #f5f6f6" xmlns="http://www.w3.org/2000/svg" xmlns:xlink="http://www.w3.org/1999/xlink"><style>.diagram-root { font-family: "Helvetica Neue", sans-serif; font-size: 12px; } .t { overflow: visible; } .t-bg { y: 40; fill: #fff;   } .th { fill: #005aa0;   } .tht { fill: #fff; font-size: 14px;  } .tf { fill: #323c46; overflow: visible; } .tf.pk { fill: #005aa0; font-weight: bold; } .tf.fk { font-weight: bold; } .ty { fill: #adb1b5; font-weight: normal; text-anchor: end; } .r { fill: transparent; stroke: #c3c3c3; stroke-width: 1; } .l { stroke: 1; } .i { fill: #c2c7ce; stroke: #c2c7ce; } .i.ix { fill: #afb3b6; stroke: #000; } .fa { fill: transparent; overflow: visible; } .fa .bg.hover { fill: #f7f7f7; } .c { cy: 12; r: 4; stroke: #d2d2dc; fill: #d2d2dc; } .hr { fill: transparent; stroke: #323c46; stroke-opacity: 0.035; stroke-width: 13; } .dc { stroke: #fa5a3c; fill: #fa5a3c; } .x { stroke: white; stroke-width: 1; } .hl .th { fill: #1b9bff; } .hl .tht {  } .fhl .bg { fill: #e7f4ff; } .fhls .bg {  } .r.hl { stroke: #1b9bff; } .dim { opacity: 0.25; }</style><g class="drawing-wrapper" transform="translate(2, 18) scale(1,1)"><g class="rs"><path d="M 196 237 m -1, 0 a 1,1 0 1,0 2,0 a 1,1 0 1,0 -2,0 M 196 237 m -0.5, 0 a 0.5,0.5 0 1,0 1,0 a 0.5,0.5 0 1,0 -1,0  M196 237 L196 237 208 237 M202 243 L202 243 202 231 M208 237 Q 238.25 237, 268.5 342.5 T 329 448 M 341 448 m -1, 0 a 1,1 0 1,0 2,0 a 1,1 0 1,0 -2,0 M 341 448 m -0.5, 0 a 0.5,0.5 0 1,0 1,0 a 0.5,0.5 0 1,0 -1,0  M341 448 L341 448 329 448 M335 454 L335 454 335 442" id="h2968744309" class="r"></path><path d="M 341 523 m -1, 0 a 1,1 0 1,0 2,0 a 1,1 0 1,0 -2,0 M 341 523 m -0.5, 0 a 0.5,0.5 0 1,0 1,0 a 0.5,0.5 0 1,0 -1,0  M341 523 L341 523 329 523 M 341 529 m -1, 0 a 1,1 0 1,0 2,0 a 1,1 0 1,0 -2,0 M 341 529 m -0.5, 0 a 0.5,0.5 0 1,0 1,0 a 0.5,0.5 0 1,0 -1,0  M341 529 L341 529 334 523 341 517 M 341 517 m -1, 0 a 1,1 0 1,0 2,0 a 1,1 0 1,0 -2,0 M 341 517 m -0.5, 0 a 0.5,0.5 0 1,0 1,0 a 0.5,0.5 0 1,0 -1,0  M329 523 C 27.271999999999963 523, 121.66999999999999 732.33, 171.67 732.33 M 183.67 732.33 m -1, 0 a 1,1 0 1,0 2,0 a 1,1 0 1,0 -2,0 M 183.67 732.33 m -0.5, 0 a 0.5,0.5 0 1,0 1,0 a 0.5,0.5 0 1,0 -1,0  M183.67 732.33 L183.67 732.33 171.67 732.33 M177.67 738.33 L177.67 738.33 177.67 726.33" id="h2102212595" class="r"></path><path d="M 347.67 882.33 m -1, 0 a 1,1 0 1,0 2,0 a 1,1 0 1,0 -2,0 M 347.67 882.33 m -0.5, 0 a 0.5,0.5 0 1,0 1,0 a 0.5,0.5 0 1,0 -1,0  M347.67 882.33 L347.67 882.33 359.67 882.33 M 347.67 888.33 m -1, 0 a 1,1 0 1,0 2,0 a 1,1 0 1,0 -2,0 M 347.67 888.33 m -0.5, 0 a 0.5,0.5 0 1,0 1,0 a 0.5,0.5 0 1,0 -1,0  M347.67 888.33 L347.67 888.33 354.67 882.33 347.67 876.33 M 347.67 876.33 m -1, 0 a 1,1 0 1,0 2,0 a 1,1 0 1,0 -2,0 M 347.67 876.33 m -0.5, 0 a 0.5,0.5 0 1,0 1,0 a 0.5,0.5 0 1,0 -1,0  M359.67 882.33 Q 436.42 882.33, 513.17 793.06 T 666.67 703.78 M 678.67 703.78 m -1, 0 a 1,1 0 1,0 2,0 a 1,1 0 1,0 -2,0 M 678.67 703.78 m -0.5, 0 a 0.5,0.5 0 1,0 1,0 a 0.5,0.5 0 1,0 -1,0  M678.67 703.78 L678.67 703.78 666.67 703.78 M672.67 709.78 L672.67 709.78 672.67 697.78" id="h857776942" class="r"></path><path d="M 710.67 462.67 m -1, 0 a 1,1 0 1,0 2,0 a 1,1 0 1,0 -2,0 M 710.67 462.67 m -0.5, 0 a 0.5,0.5 0 1,0 1,0 a 0.5,0.5 0 1,0 -1,0  M710.67 462.67 L710.67 462.67 698.67 462.67 M 710.67 468.67 m -1, 0 a 1,1 0 1,0 2,0 a 1,1 0 1,0 -2,0 M 710.67 468.67 m -0.5, 0 a 0.5,0.5 0 1,0 1,0 a 0.5,0.5 0 1,0 -1,0  M710.67 468.67 L710.67 468.67 703.67 462.67 710.67 456.67 M 710.67 456.67 m -1, 0 a 1,1 0 1,0 2,0 a 1,1 0 1,0 -2,0 M 710.67 456.67 m -0.5, 0 a 0.5,0.5 0 1,0 1,0 a 0.5,0.5 0 1,0 -1,0  M698.67 462.67 Q 655.26 462.67, 611.84 455.34 T 525 448 M 513 448 m -1, 0 a 1,1 0 1,0 2,0 a 1,1 0 1,0 -2,0 M 513 448 m -0.5, 0 a 0.5,0.5 0 1,0 1,0 a 0.5,0.5 0 1,0 -1,0  M513 448 L513 448 525 448 M519 454 L519 454 519 442" id="h2989048949" class="r"></path><path d="M 691.67 202.22 m -1, 0 a 1,1 0 1,0 2,0 a 1,1 0 1,0 -2,0 M 691.67 202.22 m -0.5, 0 a 0.5,0.5 0 1,0 1,0 a 0.5,0.5 0 1,0 -1,0  M691.67 202.22 L691.67 202.22 679.67 202.22 M 691.67 208.22 m -1, 0 a 1,1 0 1,0 2,0 a 1,1 0 1,0 -2,0 M 691.67 208.22 m -0.5, 0 a 0.5,0.5 0 1,0 1,0 a 0.5,0.5 0 1,0 -1,0  M691.67 208.22 L691.67 208.22 684.67 202.22 691.67 196.22 M 691.67 196.22 m -1, 0 a 1,1 0 1,0 2,0 a 1,1 0 1,0 -2,0 M 691.67 196.22 m -0.5, 0 a 0.5,0.5 0 1,0 1,0 a 0.5,0.5 0 1,0 -1,0  M679.67 202.22 Q 641.01 202.22, 602.34 325.11 T 525 448 M 513 448 m -1, 0 a 1,1 0 1,0 2,0 a 1,1 0 1,0 -2,0 M 513 448 m -0.5, 0 a 0.5,0.5 0 1,0 1,0 a 0.5,0.5 0 1,0 -1,0  M513 448 L513 448 525 448 M519 454 L519 454 519 442" id="h333353683" class="r"></path></g><g class="hrs"></g><g class="ts"><svg width="166" height="225" x="30" y="30" id="h202161479" class="t"><rect height="40" width="166" class="th"></rect><text x="13" y="25" class="tht">Aluno</text><rect height="185" width="166" class="t-bg" y="40"></rect><text x="13" y="61" class="tf pk">codigo<tspan x="153" class="ty">int</tspan></text><path d="M7,14A2,2 0 0,1 5,12A2,2 0 0,1 7,10A2,2 0 0,1 9,12A2,2 0 0,1 7,14M12.65,10C11.83,7.67 9.61,6 7, 6A6, 6 0 0, 0 1, 12A6, 6 0 0, 0 7, 18C9.61, 18 11.83, 16.33 12.65, 14H17V18H21V14H23V10H12.65Z" class="i pk" transform="translate(120, 48) scale(0.65)"></path><text x="13" y="86" class="tf">nome<tspan x="153" class="ty">varchar(40)</tspan></text><text x="13" y="111" class="tf">email<tspan x="153" class="ty">varchar(40)</tspan></text><text x="13" y="136" class="tf">data_nascimento<tspan x="153" class="ty">date</tspan></text><text x="13" y="161" class="tf">cpf<tspan x="153" class="ty">varchar(11)</tspan></text><text x="13" y="186" class="tf">telefone<tspan x="153" class="ty">varchar(15)</tspan></text><text x="13" y="211" class="tf pk">id_matricula<tspan x="153" class="ty">int</tspan></text><path d="M7,14A2,2 0 0,1 5,12A2,2 0 0,1 7,10A2,2 0 0,1 9,12A2,2 0 0,1 7,14M12.65,10C11.83,7.67 9.61,6 7, 6A6, 6 0 0, 0 1, 12A6, 6 0 0, 0 7, 18C9.61, 18 11.83, 16.33 12.65, 14H17V18H21V14H23V10H12.65Z" class="i pk" transform="translate(120, 198) scale(0.65)"></path></svg><svg width="172" height="150" x="341" y="391" id="h406312257" class="t"><rect height="40" width="172" class="th"></rect><text x="13" y="25" class="tht">Matricula</text><rect height="110" width="172" class="t-bg" y="40"></rect><text x="13" y="61" class="tf pk">id<tspan x="159" class="ty">int</tspan></text><path d="M7,14A2,2 0 0,1 5,12A2,2 0 0,1 7,10A2,2 0 0,1 9,12A2,2 0 0,1 7,14M12.65,10C11.83,7.67 9.61,6 7, 6A6, 6 0 0, 0 1, 12A6, 6 0 0, 0 7, 18C9.61, 18 11.83, 16.33 12.65, 14H17V18H21V14H23V10H12.65Z" class="i pk" transform="translate(126, 48) scale(0.65)"></path><text x="13" y="86" class="tf">data<tspan x="159" class="ty">date</tspan></text><text x="13" y="111" class="tf">aula_experimental<tspan x="159" class="ty">bool</tspan></text><text x="13" y="136" class="tf fk">id_turma<tspan x="159" class="ty">int</tspan></text></svg><svg width="164" height="225" x="183.67" y="675.33" id="h1267159656" class="t"><rect height="40" width="164" class="th"></rect><text x="13" y="25" class="tht">Turma</text><rect height="185" width="164" class="t-bg" y="40"></rect><text x="13" y="61" class="tf pk">id<tspan x="151" class="ty">int</tspan></text><path d="M7,14A2,2 0 0,1 5,12A2,2 0 0,1 7,10A2,2 0 0,1 9,12A2,2 0 0,1 7,14M12.65,10C11.83,7.67 9.61,6 7, 6A6, 6 0 0, 0 1, 12A6, 6 0 0, 0 7, 18C9.61, 18 11.83, 16.33 12.65, 14H17V18H21V14H23V10H12.65Z" class="i pk" transform="translate(118, 48) scale(0.65)"></path><text x="13" y="86" class="tf">nome<tspan x="151" class="ty">varchar(40)</tspan></text><text x="13" y="111" class="tf">dia<tspan x="151" class="ty">date</tspan></text><text x="13" y="136" class="tf">horario<tspan x="151" class="ty">varchar(5)</tspan></text><text x="13" y="161" class="tf">duracao<tspan x="151" class="ty">int</tspan></text><text x="13" y="186" class="tf">preco<tspan x="151" class="ty">double</tspan></text><text x="13" y="211" class="tf fk">codigo_funcionario<tspan x="151" class="ty">int</tspan></text></svg><svg width="166" height="200" x="678.67" y="646.78" id="h1720326710" class="t"><rect height="40" width="166" class="th"></rect><text x="13" y="25" class="tht">Funcionario</text><rect height="160" width="166" class="t-bg" y="40"></rect><text x="13" y="61" class="tf pk">codigo<tspan x="153" class="ty">int</tspan></text><path d="M7,14A2,2 0 0,1 5,12A2,2 0 0,1 7,10A2,2 0 0,1 9,12A2,2 0 0,1 7,14M12.65,10C11.83,7.67 9.61,6 7, 6A6, 6 0 0, 0 1, 12A6, 6 0 0, 0 7, 18C9.61, 18 11.83, 16.33 12.65, 14H17V18H21V14H23V10H12.65Z" class="i pk" transform="translate(120, 48) scale(0.65)"></path><text x="13" y="86" class="tf">nome<tspan x="153" class="ty">varchar(40)</tspan></text><text x="13" y="111" class="tf">email<tspan x="153" class="ty">varchar(40)</tspan></text><text x="13" y="136" class="tf">data_nascimento<tspan x="153" class="ty">date</tspan></text><text x="13" y="161" class="tf">cpf<tspan x="153" class="ty">varchar(11)</tspan></text><text x="13" y="186" class="tf">tipo<tspan x="153" class="ty">varchar(15)</tspan></text></svg><svg width="127" height="150" x="710.67" y="330.67" id="h2018762964" class="t"><rect height="40" width="127" class="th"></rect><text x="13" y="25" class="tht">Pagamento</text><rect height="110" width="127" class="t-bg" y="40"></rect><text x="13" y="61" class="tf pk">id<tspan x="114" class="ty">int</tspan></text><path d="M7,14A2,2 0 0,1 5,12A2,2 0 0,1 7,10A2,2 0 0,1 9,12A2,2 0 0,1 7,14M12.65,10C11.83,7.67 9.61,6 7, 6A6, 6 0 0, 0 1, 12A6, 6 0 0, 0 7, 18C9.61, 18 11.83, 16.33 12.65, 14H17V18H21V14H23V10H12.65Z" class="i pk" transform="translate(81, 48) scale(0.65)"></path><text x="13" y="86" class="tf">valor<tspan x="114" class="ty">double</tspan></text><text x="13" y="111" class="tf pk">data<tspan x="114" class="ty">date</tspan></text><path d="M7,14A2,2 0 0,1 5,12A2,2 0 0,1 7,10A2,2 0 0,1 9,12A2,2 0 0,1 7,14M12.65,10C11.83,7.67 9.61,6 7, 6A6, 6 0 0, 0 1, 12A6, 6 0 0, 0 7, 18C9.61, 18 11.83, 16.33 12.65, 14H17V18H21V14H23V10H12.65Z" class="i pk" transform="translate(70, 98) scale(0.65)"></path><text x="13" y="136" class="tf fk">id_matricula<tspan x="114" class="ty">int</tspan></text></svg><svg width="127" height="150" x="691.67" y="70.22" id="h2911951444" class="t"><rect height="40" width="127" class="th"></rect><text x="13" y="25" class="tht">Frequencia</text><rect height="110" width="127" class="t-bg" y="40"></rect><text x="13" y="61" class="tf pk">id<tspan x="114" class="ty">int</tspan></text><path d="M7,14A2,2 0 0,1 5,12A2,2 0 0,1 7,10A2,2 0 0,1 9,12A2,2 0 0,1 7,14M12.65,10C11.83,7.67 9.61,6 7, 6A6, 6 0 0, 0 1, 12A6, 6 0 0, 0 7, 18C9.61, 18 11.83, 16.33 12.65, 14H17V18H21V14H23V10H12.65Z" class="i pk" transform="translate(81, 48) scale(0.65)"></path><text x="13" y="86" class="tf">presenca<tspan x="114" class="ty">bool</tspan></text><text x="13" y="111" class="tf pk">data<tspan x="114" class="ty">date</tspan></text><path d="M7,14A2,2 0 0,1 5,12A2,2 0 0,1 7,10A2,2 0 0,1 9,12A2,2 0 0,1 7,14M12.65,10C11.83,7.67 9.61,6 7, 6A6, 6 0 0, 0 1, 12A6, 6 0 0, 0 7, 18C9.61, 18 11.83, 16.33 12.65, 14H17V18H21V14H23V10H12.65Z" class="i pk" transform="translate(70, 98) scale(0.65)"></path><text x="13" y="136" class="tf fk">id_matricula<tspan x="114" class="ty">int</tspan></text></svg></g></g><text class="qdbd-link" x="10" y="20">www.quickdatabasediagrams.com</text></svg>